<svg fill="#000000" viewBox="0 0 32 32" enable-background="new 0 0 32 32" id="Layer_3" version="1.1" xml:space="preserve" xmlns="http://www.w3.org/2000/svg" xmlns:xlink="http://www.w3.org/1999/xlink" stroke="#000000" stroke-width="0.00032"><g id="SVGRepo_bgCarrier" stroke-width="0"></g><g id="SVGRepo_tracerCarrier" stroke-linecap="round" stroke-linejoin="round"></g><g id="SVGRepo_iconCarrier"> <g> <path d="M3,25h8c0.553,0,1-0.447,1-1v-1.595c0.935,0.375,1.941,0.575,2.979,0.575c1.8,0,3.505-0.596,4.902-1.685l1.463,1.463l0,0 c-0.346,0.346-0.391,0.891-0.106,1.288l3.536,4.949c0.032,0.045,0.067,0.087,0.106,0.126c0.585,0.585,1.353,0.877,2.121,0.877 s1.536-0.292,2.121-0.877c1.17-1.17,1.17-3.072,0-4.242c-0.039-0.039-0.081-0.074-0.126-0.106l-4.949-3.536 c-0.397-0.284-0.942-0.24-1.288,0.106l0,0l-1.463-1.463c1.089-1.397,1.685-3.102,1.685-4.902c0-2.137-0.832-4.146-2.344-5.656 C18.305,6.991,14.882,6.404,12,7.556V3c0-0.553-0.447-1-1-1H3C2.447,2,2,2.447,2,3v8c0,0.553,0.447,1,1,1h4.556 c-0.384,0.96-0.575,1.98-0.572,3H3c-0.553,0-1,0.447-1,1v8C2,24.553,2.447,25,3,25z M27.754,26.344C27.913,26.525,28,26.756,28,27 c0,0.267-0.104,0.518-0.293,0.707c-0.363,0.36-0.983,0.38-1.363,0.047l-2.987-4.181l0.217-0.217L27.754,26.344z M10,18.319 C9.721,17.904,9.514,17.459,9.35,17H10V18.319z M4,10V4h6v4.722c-0.234,0.186-0.461,0.384-0.678,0.6S8.908,9.766,8.722,10H4z M9.799,12H11c0.553,0,1-0.447,1-1V9.799c0.922-0.529,1.945-0.817,2.979-0.817c1.537,0,3.073,0.585,4.243,1.755 c1.134,1.134,1.758,2.64,1.758,4.242c0,1.604-0.624,3.109-1.758,4.243s-2.64,1.758-4.243,1.758c-1.063,0-2.081-0.28-2.979-0.796V16 c0-0.553-0.447-1-1-1H8.984C8.981,13.96,9.266,12.928,9.799,12z M4,17h3.249c0.346,1.332,1.031,2.594,2.073,3.636 c0.215,0.215,0.443,0.413,0.678,0.601V23H4V17z"></path> <path d="M9.207,5.355c-0.391-0.391-1.023-0.391-1.414,0L6.625,6.523L6.207,6.105c-0.391-0.391-1.023-0.391-1.414,0 s-0.391,1.023,0,1.414l1.125,1.125C6.113,8.84,6.369,8.938,6.625,8.938S7.137,8.84,7.332,8.645L9.207,6.77 C9.598,6.379,9.598,5.746,9.207,5.355z"></path> </g> </g></svg>