<svg fill="#000000" viewBox="0 0 32 32" enable-background="new 0 0 32 32" id="Layer_3" version="1.1" xml:space="preserve" xmlns="http://www.w3.org/2000/svg" xmlns:xlink="http://www.w3.org/1999/xlink"><g id="SVGRepo_bgCarrier" stroke-width="0"></g><g id="SVGRepo_tracerCarrier" stroke-linecap="round" stroke-linejoin="round"></g><g id="SVGRepo_iconCarrier"> <g> <path d="M29,24c-0.553,0-1,0.448-1,1v2.5c0,0.276-0.225,0.5-0.5,0.5S27,27.776,27,27.5V6.17c0-2.224-1.663-4.053-3.786-4.164 C23.143,2.002,23.073,2,23,2H6C3.794,2,2,3.794,2,6c0,0.552,0.447,1,1,1h2v19.268C5,28.326,6.675,30,8.732,30H27 c0.059,0,0.111-0.024,0.167-0.034C27.277,29.981,27.386,30,27.5,30c1.379,0,2.5-1.122,2.5-2.5V25C30,24.448,29.553,24,29,24z M6,4 h13.537c-0.18,0.313-0.318,0.65-0.409,1H4.269C4.614,4.403,5.261,4,6,4z M7,26.268V7h13c0.553,0,1-0.448,1-1 c0-0.554,0.222-1.069,0.624-1.451c0.402-0.381,0.948-0.575,1.484-0.546C24.151,4.058,25,5.03,25,6.17V27.5 c0,0.171,0.018,0.338,0.051,0.5H8.732C7.777,28,7,27.223,7,26.268z"></path> <path d="M10.293,14.121L11,13.414l0.707,0.707c0.195,0.195,0.451,0.293,0.707,0.293s0.512-0.098,0.707-0.293 c0.391-0.391,0.391-1.023,0-1.414L12.414,12l0.707-0.707c0.391-0.391,0.391-1.023,0-1.414s-1.023-0.391-1.414,0L11,10.586 l-0.707-0.707c-0.391-0.391-1.023-0.391-1.414,0s-0.391,1.023,0,1.414L9.586,12l-0.707,0.707c-0.391,0.391-0.391,1.023,0,1.414 c0.195,0.195,0.451,0.293,0.707,0.293S10.098,14.316,10.293,14.121z"></path> <path d="M21.707,18.293c-0.391-0.391-1.023-0.391-1.414,0L19.586,19l-0.707-0.707c-0.391-0.391-1.023-0.391-1.414,0 c-0.391,0.39-0.391,1.023,0,1.414l0.707,0.707l-0.707,0.707c-0.391,0.391-0.391,1.024,0,1.414c0.195,0.195,0.451,0.293,0.707,0.293 s0.512-0.098,0.707-0.293l0.707-0.707l0.707,0.707c0.195,0.195,0.451,0.293,0.707,0.293s0.512-0.098,0.707-0.293 c0.391-0.39,0.391-1.023,0-1.414L21,20.414l0.707-0.707C22.098,19.316,22.098,18.683,21.707,18.293z"></path> <path d="M19.662,14.147l0.39,1.169C20.191,15.735,20.581,16,21,16c0.104,0,0.211-0.017,0.316-0.052 c0.523-0.175,0.807-0.741,0.632-1.265l-1-3c-0.039-0.117-0.102-0.219-0.176-0.31c-0.015-0.018-0.033-0.031-0.049-0.048 c-0.07-0.075-0.149-0.137-0.238-0.187c-0.013-0.007-0.021-0.02-0.034-0.027c-0.013-0.007-0.027-0.005-0.041-0.011 c-0.094-0.043-0.193-0.07-0.299-0.082c-0.02-0.002-0.039-0.008-0.059-0.009C20.035,11.008,20.018,11,20,11h-4c-0.553,0-1,0.448-1,1 s0.447,1,1,1h2.004c-0.578,0.631-1.399,1.395-2.559,2.168c-3.048,2.032-3.032,3.621-2.66,5.813C12.891,21.604,13,22.248,13,23 c0,0.542-0.181,0.746-0.315,0.852c-0.569,0.445-1.893,0.312-2.444,0.177c-0.535-0.135-1.077,0.192-1.21,0.728 c-0.135,0.536,0.191,1.079,0.728,1.213c0.135,0.034,0.809,0.191,1.635,0.191c0.816,0,1.781-0.153,2.521-0.731 C14.409,25.043,15,24.307,15,23c0-0.921-0.129-1.682-0.243-2.353c-0.282-1.663-0.398-2.351,1.798-3.815 C17.984,15.879,18.977,14.927,19.662,14.147z"></path> </g> </g></svg>