<svg fill="#5a00ff" version="1.1" id="lang-icon" xmlns="http://www.w3.org/2000/svg" xmlns:xlink="http://www.w3.org/1999/xlink" viewBox="-51.2 -51.2 614.40 614.40" xml:space="preserve" data-darkreader-inline-fill="" style="--darkreader-inline-fill: #6c00ff; --darkreader-inline-stroke: #9f27ff;" stroke="#5a00ff" stroke-width="0.0051199900000000005" data-darkreader-inline-stroke="" transform="matrix(-1, 0, 0, 1, 0, 0)"><g id="SVGRepo_bgCarrier" stroke-width="0"></g><g id="SVGRepo_tracerCarrier" stroke-linecap="round" stroke-linejoin="round" stroke="#CCCCCC" stroke-width="1.0239980000000002" data-darkreader-inline-stroke="" style="--darkreader-inline-stroke: #ffffff;"></g><g id="SVGRepo_iconCarrier"> <g> <g> <g> <path d="M255.917,71.868c-91.087,0-165.192,74.105-165.192,165.192s74.105,165.192,165.192,165.192 s165.192-74.105,165.192-165.192C421.109,145.973,347.004,71.868,255.917,71.868z M127.681,254.918h30.446 c1.963,31.764,9.149,61.576,20.794,86.166C151.631,320.833,132.559,290.113,127.681,254.918z M158.127,219.201h-30.446 c4.878-35.197,23.95-65.915,51.24-86.166C167.276,157.623,160.091,187.435,158.127,219.201z M238.058,360.935 c-23.938-15.467-40.534-60.669-44.073-106.017h44.073V360.935z M238.058,219.201h-44.163 c3.639-52.156,22.893-91.059,44.163-105.49V219.201z M384.153,219.199h-30.446c-1.963-31.764-9.149-61.576-20.794-86.166 C360.202,153.286,379.276,184.004,384.153,219.199z M273.776,113.183c23.937,15.467,40.533,60.669,44.073,106.016h-44.073 V113.183z M273.776,360.407v-105.49h44.164C314.301,307.074,295.047,345.977,273.776,360.407z M332.913,341.084 c11.645-24.589,18.83-54.402,20.794-86.166h30.446C379.276,290.113,360.202,320.833,332.913,341.084z"></path> <path d="M449.518,373.903C559.281,219.316,449.817,0,255.917,0C125.202,0,18.859,106.344,18.859,237.059 c0,171.548,177.106,285.907,332.797,216.924l110.132,56.039c14.048,7.142,30.038-6.229,25.08-21.449L449.518,373.903z M360.104,418.206c-4.991-2.54-10.889-2.596-15.941-0.129C211.979,482.672,54.577,387.006,54.577,237.059 c0-111.019,90.321-201.34,201.34-201.34c167.671,0,260.643,192.93,159.622,324.069c-3.599,4.673-4.66,10.821-2.834,16.43 l26.844,82.412L360.104,418.206z"></path> </g> </g> </g> </g></svg>